<svg width="140.000000" height="140.000000" viewBox="0 0 140 140" fill="none" xmlns="http://www.w3.org/2000/svg" xmlns:xlink="http://www.w3.org/1999/xlink">
	<desc>
			Created with Pixso.
	</desc>
	<defs/>
	<circle cx="70.000000" cy="69.005859" r="70.000000" fill="#F8F8F8" fill-opacity="0.900000"/>
	<path d="M49.56 99.54C45.06 99.54 37.39 97.73 37.39 94.39C37.39 93.43 38.18 92.1 38.66 91.25L39.03 91.25C39.03 91.25 43.21 96.19 50.3 96.19C55.49 96.19 57.24 93.43 57.24 90.56C57.24 82.16 38.23 83.28 38.23 71.64C38.23 64.62 44.8 60.74 51.47 60.74C54.32 60.74 62 61.81 62 64.78C62 66.11 61.15 67.86 59.93 69.09L59.56 69.09C59.56 69.09 56.02 63.61 50.35 63.61C46.76 63.61 44.16 66.16 44.16 69.57C44.16 77.86 63.16 76.05 63.16 88.27C63.16 95.66 56.23 99.54 49.56 99.54ZM86.29 99.54C86.29 99.54 80.04 99.54 78.08 93.16C76.02 86.47 71.52 72.33 68.82 66.48C67.28 63.19 66.28 61.81 66.28 61.81C66.28 61.81 67.5 61.11 71.1 61.11C72.95 61.11 75.01 62.28 75.54 64.57C77.08 70.89 81.84 84.45 85.07 92.58L85.33 92.58C87.5 86.63 90.47 78.07 90.47 75.15C90.47 70.95 86.39 61.81 86.39 61.81C86.39 61.81 86.92 61.11 90.26 61.11C92.11 61.11 94.22 62.28 94.7 64.57C96.02 70.89 100.15 84.45 103.17 92.58L103.43 92.58C113.28 63.51 111.9 61.11 116.61 61.11C118.25 61.11 119 61.7 119 61.7L119 61.97C119 61.97 116.98 63.51 115.08 68.82L105.92 94.33C105.08 96.72 104.39 99.54 104.39 99.54C104.39 99.54 97.88 99.27 96.18 93.16C95.28 89.97 94.12 85.62 92.69 80.67L92.43 80.67C92.43 80.67 92.27 81.84 91.9 82.96L87.82 94.33C86.97 96.72 86.29 99.54 86.29 99.54Z" fill="#1F135B" fill-opacity="1.000000" fill-rule="evenodd"/>
	<path d="M48.25 61.88L32.72 60.19L33.58 64.63L34.17 67.73C34.85 71.21 41.95 72.77 50.05 71.21C58.15 69.66 64.17 65.57 63.5 62.08C63.5 62.06 63.48 62.03 63.48 62L62.04 54.55L48.25 61.88Z" fill="#1F135B" fill-opacity="1.000000" fill-rule="nonzero"/>
	<path d="M21.81 56.91L27.41 57.78L27.67 56.74L29.57 56.2L29.9 56.43L28.32 57.14L28.22 57.9C28.22 57.9 25.99 66.41 27.27 70.12C27.27 70.12 29.86 71.06 31.92 69.23L30.54 58.68L30.37 57.81L33.68 56.37L33.55 57.01L31.13 58.35L32.41 58.55L47.94 60.24L61.73 52.91L70.96 47.45L44.57 42.73L21.81 56.91Z" fill="#1F135B" fill-opacity="1.000000" fill-rule="nonzero"/>
</svg>
